<svg xmlns="http://www.w3.org/2000/svg" width="120.826" height="32" viewBox="0 0 120.826 32">
  <g id="Group_1" data-name="Group 1" transform="translate(-1475.311 -1231.637)">
    <path id="Path_1" data-name="Path 1" d="M1500.734,1240.69a13.069,13.069,0,0,0-2.446-2.431,11.667,11.667,0,1,0-8.659,20.911,12.358,12.358,0,0,0,9.124-2.4,44.8,44.8,0,0,0,6.335-5.644,106.067,106.067,0,0,0,8.522-9.951c2.054-2.723,4.012-5.514,5.9-8.352a.766.766,0,0,1,.735-.4c1.9.019,3.809.016,5.713.006a1.937,1.937,0,0,1,1.9.927,2.007,2.007,0,0,1-.187,2.2,30.861,30.861,0,0,1-2.5,2.967c-3.766,4.311-7.522,8.633-11.431,12.816a48.416,48.416,0,0,1-10.036,8.512,25.346,25.346,0,0,1-9.635,3.591,16.021,16.021,0,0,1-5.861-31.5,15.7,15.7,0,0,1,14.842,4.772.427.427,0,0,1,.042.673C1502.3,1238.469,1501.536,1239.565,1500.734,1240.69Z" transform="translate(0 0)" fill="#ed7f02" fill-rule="evenodd"/>
    <path id="Path_2" data-name="Path 2" d="M1561.279,1254.751a6.039,6.039,0,0,0-11.774,2,5.978,5.978,0,0,0,6.464,5.843,6.372,6.372,0,0,0,3.684-1.759,18.972,18.972,0,0,0,2.865-3.365q5.606-7.837,11.213-15.673a.763.763,0,0,1,.7-.375c2.483.014,4.967.007,7.45.009.146,0,.292.013.515.024-.278.409-.513.758-.75,1.105a127.842,127.842,0,0,1-10.007,13.09,67.646,67.646,0,0,1-8.459,8.313,13.622,13.622,0,0,1-5.478,2.8,10.366,10.366,0,1,1-3.656-20.4,10.119,10.119,0,0,1,9.774,4.02.568.568,0,0,1,.027.828c-.787,1.046-1.531,2.124-2.294,3.188C1561.479,1254.507,1561.391,1254.61,1561.279,1254.751Z" transform="translate(-64.195 -8.989)" fill="#ed7f02" fill-rule="evenodd"/>
    <path id="Path_3" data-name="Path 3" d="M2484.945,1313.15a2.267,2.267,0,0,1,1.194,2.192,6.455,6.455,0,0,0,.319,1.882c-.7,0-1.367,0-2.031,0-.2,0-.254-.112-.294-.274a8.364,8.364,0,0,1-.169-1.355c-.1-1.2-.468-1.561-1.656-1.557-.408,0-.946-.133-1.19.073-.287.241-.078.8-.093,1.217-.019.516-.015,1.035,0,1.552.007.243-.042.358-.32.348-.547-.021-1.1-.021-1.643,0-.277.011-.318-.1-.318-.343q.011-3.995,0-7.99c0-.262.04-.37.341-.367,1.446.017,2.891,0,4.337.013a3.533,3.533,0,0,1,.855.116,2.265,2.265,0,0,1,1.917,1.888A2.345,2.345,0,0,1,2484.945,1313.15Zm-2.845-.868c.289,0,.579.015.867,0a.956.956,0,1,0-.036-1.908c-.349-.013-.7,0-1.05,0-.862,0-.862,0-.862.841C2481.02,1312.287,2481.02,1312.287,2482.1,1312.282Z" transform="translate(-922.028 -70.656)" fill="#485359" fill-rule="evenodd"/>
    <path id="Path_4" data-name="Path 4" d="M2486.076,1446.951a2.252,2.252,0,0,1,1.2,2.184,6.906,6.906,0,0,0,.314,1.892c-.709,0-1.384,0-2.059,0-.214,0-.228-.157-.265-.305a8.472,8.472,0,0,1-.167-1.355c-.1-1.172-.474-1.532-1.641-1.52-.42,0-.963-.186-1.228.084-.241.247-.061.783-.069,1.191-.01.532-.013,1.065,0,1.6.007.238-.068.318-.309.312-.563-.015-1.126-.014-1.689,0-.22.005-.283-.066-.283-.284q.009-4.063,0-8.126c0-.132-.034-.287.187-.28a40.257,40.257,0,0,1,5.24.111,2.346,2.346,0,0,1,1.875,3.321A2.22,2.22,0,0,1,2486.076,1446.951Zm-2.779-.843c0-.007,0-.014,0-.022.274,0,.549.015.822,0a.954.954,0,1,0-.011-1.906c-.38-.018-.761,0-1.142,0-.806,0-.815,0-.8.8.006.36-.166.846.075,1.043S2482.935,1446.091,2483.3,1446.108Z" transform="translate(-923.078 -193.582)" fill="#485359" fill-rule="evenodd"/>
    <path id="Path_5" data-name="Path 5" d="M2184.44,1310.348c-.051,1.845-.652,3.4-2.464,4.165-2.427,1.027-5.963.061-6.11-3.971a4.3,4.3,0,0,1,6.244-4.307,4.077,4.077,0,0,1,2.328,3.749C2184.448,1310.1,2184.44,1310.227,2184.44,1310.348Zm-2.28-.009a3.23,3.23,0,0,0-.342-1.554,1.753,1.753,0,0,0-1.7-1,1.715,1.715,0,0,0-1.636,1.032,3.486,3.486,0,0,0-.1,2.831,1.762,1.762,0,0,0,1.814,1.247,1.8,1.8,0,0,0,1.756-1.275A3.312,3.312,0,0,0,2182.16,1310.339Z" transform="translate(-643.717 -68.117)" fill="#485359" fill-rule="evenodd"/>
    <path id="Path_6" data-name="Path 6" d="M2384.068,1312.861c0-1.309.01-2.618-.007-3.927,0-.305.055-.414.391-.412,2.07.017,4.14.013,6.211,0,.27,0,.382.051.361.347a8.164,8.164,0,0,0,0,1.141c.019.285-.074.357-.355.354-1.31-.015-2.619,0-3.927-.014-.312,0-.414.066-.41.4.01,1.073,0,1.073,1.048,1.073.959,0,1.918.011,2.877-.006.281,0,.377.074.359.358a8.091,8.091,0,0,0,0,1.049c.018.286-.085.362-.363.358-1.172-.015-2.344.005-3.516-.013-.325-.006-.432.093-.4.41.041.4-.167.934.084,1.187s.779.073,1.185.078c1.035.011,2.071.013,3.106,0,.3,0,.442.053.419.394-.029.439-.014.883,0,1.324,0,.2-.061.263-.26.262-2.177-.005-4.354-.008-6.531,0-.287,0-.27-.149-.27-.342C2384.07,1315.541,2384.068,1314.2,2384.068,1312.861Z" transform="translate(-835.028 -70.648)" fill="#485359" fill-rule="evenodd"/>
    <path id="Path_7" data-name="Path 7" d="M2674.784,1312.815c0-1.279.013-2.558-.008-3.836-.006-.359.053-.491.457-.486,2.025.024,4.05.018,6.074,0,.323,0,.475.05.431.414-.055.462.2,1.086-.1,1.35-.258.23-.868.07-1.322.071-.974,0-1.948.009-2.923,0-.246,0-.337.05-.343.322-.025,1.146-.036,1.146,1.113,1.146.943,0,1.887.008,2.831-.005.255,0,.357.066.338.33-.034.453.181,1.036-.078,1.328s-.859.086-1.308.095c-.852.017-1.7.014-2.557,0-.26,0-.358.076-.333.336.042.435-.186,1,.1,1.269.222.209.78.068,1.189.07,1.035,0,2.07.015,3.1-.006.33-.007.426.1.4.415-.046.509.215,1.194-.105,1.481-.282.253-.954.08-1.454.081-1.689,0-3.379-.012-5.068.011-.376.005-.443-.116-.439-.457C2674.8,1315.433,2674.784,1314.124,2674.784,1312.815Z" transform="translate(-1102.158 -70.621)" fill="#485359" fill-rule="evenodd"/>
    <path id="Path_8" data-name="Path 8" d="M2180.109,1446.992c0-1.324.009-2.649-.006-3.973,0-.292.068-.383.373-.381q3.105.02,6.211,0c.3,0,.4.076.377.377a9.032,9.032,0,0,0,0,1.141c.016.27-.09.325-.338.323-1.309-.01-2.619.008-3.927-.014-.343-.006-.432.084-.427.427.017,1.044,0,1.044,1.032,1.044.959,0,1.918.014,2.877-.008.315-.008.4.1.373.388-.036.438.179,1-.08,1.281s-.834.079-1.269.087c-.853.015-1.705.014-2.557,0-.264,0-.4.045-.372.346.038.422-.168.964.077,1.237s.8.082,1.222.088q1.552.023,3.1,0c.286,0,.412.06.391.377-.028.425-.015.853,0,1.278.006.216-.026.328-.29.326q-3.242-.014-6.485,0c-.318,0-.286-.17-.285-.372Q2180.112,1448.978,2180.109,1446.992Z" transform="translate(-647.615 -193.883)" fill="#485359" fill-rule="evenodd"/>
    <path id="Path_9" data-name="Path 9" d="M2582.379,1446.912c0-1.279.013-2.557-.009-3.836-.006-.359.054-.49.458-.485,2.024.024,4.049.018,6.073,0,.324,0,.475.051.432.414-.055.462.195,1.087-.1,1.35-.259.229-.868.069-1.322.071-.974,0-1.948.008-2.923,0-.247,0-.337.05-.343.321-.025,1.146-.035,1.146,1.113,1.146.944,0,1.887.008,2.831-.005.255,0,.357.066.337.33-.034.453.182,1.037-.078,1.328s-.859.086-1.308.095c-.852.017-1.7.014-2.557,0-.261,0-.358.077-.333.337.043.435-.187,1,.1,1.268.222.209.78.068,1.189.071,1.02,0,2.04.012,3.059-.005.316,0,.485.043.445.415-.056.508.213,1.194-.108,1.481-.282.253-.954.079-1.453.08-1.69,0-3.38-.012-5.069.011-.376.005-.443-.117-.438-.458C2582.39,1449.531,2582.379,1448.221,2582.379,1446.912Z" transform="translate(-1017.249 -193.84)" fill="#485359" fill-rule="evenodd"/>
    <path id="Path_10" data-name="Path 10" d="M2575.881,1311.93a3.519,3.519,0,0,0,.411,0c.444-.053.77-.006.838.562a.861.861,0,0,0,.651.646,2.42,2.42,0,0,0,1.61.01.782.782,0,0,0,.617-.707c.022-.384-.237-.569-.538-.713a16.859,16.859,0,0,0-2.047-.617,9.146,9.146,0,0,1-.983-.36,2.208,2.208,0,0,1-1.45-2.029,2.266,2.266,0,0,1,1.36-2.243,4.69,4.69,0,0,1,4.267-.018,2.469,2.469,0,0,1,1.382,1.874c.058.317.036.53-.389.484a9,9,0,0,0-1.1-.007c-.4.007-.725.068-.914-.5-.219-.656-1.721-.763-2.173-.234a.549.549,0,0,0,.217.905,6.319,6.319,0,0,0,1.521.469,9.79,9.79,0,0,1,1.772.583c1.985.908,1.574,3.477.276,4.339a5.535,5.535,0,0,1-5.315-.012,2.808,2.808,0,0,1-1.18-2.12c-.026-.232.047-.333.3-.317C2575.3,1311.944,2575.593,1311.93,2575.881,1311.93Z" transform="translate(-1010.212 -68.287)" fill="#485359" fill-rule="evenodd"/>
    <path id="Path_11" data-name="Path 11" d="M2877.263,1308.837c-.168,0-.336-.01-.5,0-.361.028-.6.014-.755-.45-.221-.675-1.72-.83-2.2-.288a.549.549,0,0,0,.2.908,6.149,6.149,0,0,0,1.521.471,10.011,10.011,0,0,1,1.772.58c2,.907,1.58,3.478.292,4.338a5.515,5.515,0,0,1-5.351-.028,2.8,2.8,0,0,1-1.15-2.09c-.026-.221.024-.334.285-.327.578.017,1.158.014,1.736,0,.2,0,.243.074.291.248a1.781,1.781,0,0,0,2.709.783.667.667,0,0,0-.1-1.141,4.024,4.024,0,0,0-1.194-.433,11.9,11.9,0,0,1-1.873-.57,2.264,2.264,0,0,1-1.58-2.13,2.318,2.318,0,0,1,1.555-2.3,4.706,4.706,0,0,1,4.063.072,2.467,2.467,0,0,1,1.4,1.959c.04.272,0,.439-.344.4A6.912,6.912,0,0,0,2877.263,1308.837Z" transform="translate(-1282.544 -68.317)" fill="#485359" fill-rule="evenodd"/>
    <path id="Path_12" data-name="Path 12" d="M2673.922,1446.253a3.377,3.377,0,0,0,.365,0c.449-.051.814-.036.879.567a.834.834,0,0,0,.612.626,2.386,2.386,0,0,0,1.695.007.763.763,0,0,0,.571-.695c.018-.362-.218-.547-.5-.691a9.673,9.673,0,0,0-1.783-.545,5.779,5.779,0,0,1-1.763-.722,2.293,2.293,0,0,1-.242-3.563,4.611,4.611,0,0,1,5.4-.128,2.531,2.531,0,0,1,.889,1.6c.048.285.014.464-.355.433a9.274,9.274,0,0,0-1.142,0c-.409.016-.72.042-.909-.5-.219-.635-1.663-.755-2.145-.259a.552.552,0,0,0,.195.937,6.37,6.37,0,0,0,1.521.468,9.833,9.833,0,0,1,1.771.584c1.975.906,1.573,3.476.266,4.34a5.532,5.532,0,0,1-5.314-.018,2.812,2.812,0,0,1-1.178-2.123c-.026-.239.059-.327.3-.311C2673.343,1446.267,2673.633,1446.253,2673.922,1446.253Z" transform="translate(-1100.294 -191.732)" fill="#485359" fill-rule="evenodd"/>
    <path id="Path_13" data-name="Path 13" d="M2770.81,1446.239c.092,0,.183.006.274,0,.489-.037.944-.068,1.025.623.034.291.314.475.6.576a2.4,2.4,0,0,0,1.652.01.778.778,0,0,0,.594-.677c.033-.384-.216-.576-.517-.725a10.148,10.148,0,0,0-1.784-.542,5.8,5.8,0,0,1-1.723-.7,2.288,2.288,0,0,1-.216-3.62,4.621,4.621,0,0,1,5.329-.1,2.489,2.489,0,0,1,.92,1.724c.026.228-.036.33-.292.322-.547-.017-1.1-.011-1.644,0-.206,0-.32-.025-.368-.275-.088-.466-.458-.649-.889-.73a1.427,1.427,0,0,0-1.406.294c-.273.285-.174.658.208.874a4.678,4.678,0,0,0,1.209.4,10.527,10.527,0,0,1,1.958.6,2.233,2.233,0,0,1,1.5,2.041,2.474,2.474,0,0,1-1.463,2.564,5.377,5.377,0,0,1-4.515.019,2.7,2.7,0,0,1-1.6-2.331c-.031-.259.052-.358.318-.339S2770.536,1446.239,2770.81,1446.239Z" transform="translate(-1189.348 -191.718)" fill="#485359" fill-rule="evenodd"/>
    <path id="Path_14" data-name="Path 14" d="M2767.26,1317.214l1.462-3.907c.553-1.479,1.111-2.956,1.654-4.438.09-.246.2-.361.481-.348.563.026,1.126.015,1.689,0a.35.35,0,0,1,.4.263q1.53,4.118,3.081,8.228a1.076,1.076,0,0,1,.023.194h-2.216c-.171,0-.177-.141-.215-.249-.116-.329-.232-.659-.334-.992-.064-.207-.15-.323-.406-.317-.806.02-1.613.013-2.419,0-.209,0-.36.032-.386.273a.512.512,0,0,1-.05.127c-.152.377-.15.909-.461,1.1-.288.178-.767.052-1.162.056C2768.038,1317.217,2767.674,1317.214,2767.26,1317.214Zm4.419-6.254c-.326.985-.625,1.887-.923,2.791-.07.212.071.221.222.221.426,0,.851-.013,1.276,0,.3.012.37-.068.269-.365C2772.239,1312.764,2771.979,1311.909,2771.679,1310.961Z" transform="translate(-1187.14 -70.646)" fill="#485359" fill-rule="evenodd"/>
    <path id="Path_15" data-name="Path 15" d="M2382.953,1446.962c0-1.324.007-2.648-.006-3.972,0-.271.055-.365.348-.361,1.354.017,2.709-.02,4.062.016a2.682,2.682,0,0,1,2.585,1.406,3.272,3.272,0,0,1-.185,3.268,2.434,2.434,0,0,1-2.065,1.07,19.508,19.508,0,0,1-2.052.012c-.359-.014-.432.109-.422.439.024.714,0,1.431.013,2.145,0,.251-.058.35-.327.34-.532-.019-1.066-.028-1.6,0-.333.019-.359-.129-.357-.4C2382.959,1449.61,2382.953,1448.286,2382.953,1446.962Zm2.272-1.415c0,.29.006.58,0,.868-.005.168.041.251.228.246.518-.014,1.038.018,1.552-.029a.979.979,0,0,0,.971-1.1,1.045,1.045,0,0,0-1.076-1.066c-.2-.011-.4,0-.594,0C2385.225,1444.465,2385.225,1444.466,2385.225,1445.547Z" transform="translate(-834.004 -193.875)" fill="#485359" fill-rule="evenodd"/>
    <path id="Path_16" data-name="Path 16" d="M2280.146,1442.475c-.905,1.327-1.745,2.573-2.605,3.806a.466.466,0,0,0-.009.631c.872,1.266,1.723,2.545,2.581,3.821l.284.428c-.923,0-1.77-.006-2.616,0-.229,0-.267-.178-.344-.312-.475-.83-.942-1.665-1.441-2.55-.532.864-1.052,1.684-1.544,2.52a.6.6,0,0,1-.612.349c-.713-.026-1.428-.008-2.147-.008-.041-.213.115-.321.2-.449.849-1.263,1.7-2.523,2.568-3.773a.489.489,0,0,0,0-.67c-.869-1.228-1.713-2.474-2.619-3.791.906,0,1.747,0,2.587,0,.179,0,.2.161.263.275.422.772.843,1.545,1.3,2.381.4-.693.819-1.317,1.131-1.992a1.035,1.035,0,0,1,1.2-.68C2278.892,1442.519,2279.471,1442.475,2280.146,1442.475Z" transform="translate(-731.768 -193.714)" fill="#485359" fill-rule="evenodd"/>
    <path id="Path_17" data-name="Path 17" d="M2277.1,1308.542c.715,0,1.415.014,2.113-.007.308-.01.292.213.337.384.477,1.806.945,3.616,1.423,5.423a1.09,1.09,0,0,0,.211.557c.529-2.009,1.062-4,1.574-6.006.07-.273.172-.368.456-.359.664.022,1.329.007,2.037.007-.5,1.55-.988,3.05-1.475,4.551-.412,1.271-.833,2.54-1.232,3.816-.077.248-.179.333-.44.326-.669-.02-1.34-.013-2.01,0a.333.333,0,0,1-.389-.271q-1.284-4.109-2.587-8.212A1.009,1.009,0,0,1,2277.1,1308.542Z" transform="translate(-736.746 -70.658)" fill="#485359" fill-rule="evenodd"/>
  </g>
</svg>
